<svg xmlns="http://www.w3.org/2000/svg" viewBox="0 0 128 128">
  <path fill="#CC0000" d="M11.6 30.8c-2 2.6-3.1 5.9-3.1 9.2 0 7.8 6.3 14.1 14.1 14.1h7.8L11.6 30.8z"/>
  <path fill="#CC0000" d="M102.3 8.5C92.9 2.9 81.9 0 70.8 0 46.1 0 24.2 14.4 14.4 36.6l31.1 39.5h16.2L102.3 8.5z"/>
  <path fill="#CC0000" d="M125.6 36.6C122.9 30.5 119 25 114.2 20.3L61.7 86.8h17.9l46-50.2z"/>
  <path fill="#CC0000" d="M128 54.1c-.8-5.3-2.6-10.4-5.3-15L79.6 97.4h19.5L128 54.1z"/>
  <path fill="#CC0000" d="M99.1 108H35.4L6.9 128h114.2l-22-20z"/>
</svg>
